<svg width="137" height="73" viewBox="0 0 137 73" fill="none" xmlns="http://www.w3.org/2000/svg">
<path d="M22.4414 24.9844C22.5846 24.9974 22.8971 25.043 23.3789 25.1211C24.1211 25.2513 24.7201 25.3164 25.1758 25.3164C25.7357 25.3164 26.3411 25.2513 26.9922 25.1211L26.7383 26.2344C26.0872 26.3125 25.5794 26.3516 25.2148 26.3516C24.6549 26.3516 23.9128 26.306 22.9883 26.2148C21.9987 26.1237 21.1523 26.0781 20.4492 26.0781C19.8503 26.0781 19.2708 26.1693 18.7109 26.3516C19.0234 25.5312 19.6289 23.4479 20.5273 20.1016L23.125 10.5312C20.651 13.3568 17.8971 16.2604 14.8633 19.2422C12.6497 21.4036 11.1263 22.9271 10.293 23.8125C9.34245 24.8281 8.43099 25.6484 7.55859 26.2734C6.69922 26.9115 5.69661 27.2305 4.55078 27.2305C3.52214 27.2305 2.64323 27.0091 1.91406 26.5664C1.19792 26.1367 0.839844 25.6549 0.839844 25.1211C0.839844 24.8346 0.950521 24.5612 1.17188 24.3008C1.39323 24.0404 1.67318 23.9102 2.01172 23.9102C2.51953 23.9102 3.04036 24.2682 3.57422 24.9844C4.08203 25.6615 4.57031 26 5.03906 26C6.11979 26 7.09635 25.1341 7.96875 23.4023C8.85417 21.6706 10.1562 17.5885 11.875 11.1562L13.7305 4.22266C11.1654 4.2487 9.21875 4.67839 7.89062 5.51172C6.5625 6.34505 5.89844 7.3151 5.89844 8.42188C5.89844 8.78646 6.06771 9.2487 6.40625 9.80859C6.73177 10.3294 6.89453 10.7526 6.89453 11.0781C6.89453 11.4297 6.77734 11.7357 6.54297 11.9961C6.30859 12.2435 6.0026 12.3672 5.625 12.3672C5.15625 12.3672 4.75911 12.1458 4.43359 11.7031C4.12109 11.2474 3.96484 10.6159 3.96484 9.80859C3.96484 8.67578 4.27734 7.63411 4.90234 6.68359C5.52734 5.72005 6.38021 4.95182 7.46094 4.37891C8.54167 3.80599 9.70703 3.42188 10.957 3.22656C12.207 3.03125 14.401 2.93359 17.5391 2.93359C17.0833 3.84505 16.7253 4.67839 16.4648 5.43359C16.2174 6.1888 15.4818 8.77344 14.2578 13.1875L12.3828 19.9844C13.4505 18.8125 14.6029 17.6081 15.8398 16.3711C19.8112 12.4128 22.7734 9.02083 24.7266 6.19531C26.3411 2.35417 28.7435 0.433594 31.9336 0.433594C33.0794 0.433594 33.9583 0.661458 34.5703 1.11719C35.1953 1.5599 35.5078 2.06771 35.5078 2.64062C35.5078 3.39583 35.1107 3.77344 34.3164 3.77344C33.8607 3.77344 33.3464 3.44792 32.7734 2.79688C32.1875 2.14583 31.6667 1.82031 31.2109 1.82031C29.8698 1.82031 28.5286 3.57812 27.1875 7.09375C25.8464 10.6094 24.2643 16.5729 22.4414 24.9844ZM44.8516 12.4844C44.8516 13.4089 44.5586 14.3919 43.9727 15.4336C43.3997 16.4622 41.9219 17.7057 39.5391 19.1641C37.2865 20.5443 35.8737 21.4948 35.3008 22.0156C34.7409 22.5365 34.4609 23.1094 34.4609 23.7344C34.4609 24.8542 35.2096 25.4141 36.707 25.4141C37.3841 25.4141 37.918 25.2708 38.3086 24.9844C38.6992 24.6849 39.0703 24.1901 39.4219 23.5C39.7995 22.7448 40.1445 22.237 40.457 21.9766C40.7695 21.7031 41.1732 21.5664 41.668 21.5664C42.3841 21.5664 42.7422 21.9375 42.7422 22.6797C42.7422 23.526 42.1107 24.3789 40.8477 25.2383C39.5977 26.0977 38.1784 26.5273 36.5898 26.5273C33.6602 26.5273 32.1953 25.4466 32.1953 23.2852C32.1953 22.1784 32.5859 21.1823 33.3672 20.2969C34.1484 19.4115 35.6198 18.2721 37.7812 16.8789C39.8646 15.5378 41.2383 14.5417 41.9023 13.8906C42.5664 13.2266 42.8984 12.5625 42.8984 11.8984C42.8984 11.1693 42.5469 10.8047 41.8438 10.8047C41.2969 10.8047 40.444 11.2799 39.2852 12.2305C38.5299 12.8294 37.8984 13.1289 37.3906 13.1289C36.6745 13.1289 36.3164 12.8229 36.3164 12.2109C36.3164 11.5859 36.7982 10.987 37.7617 10.4141C38.7253 9.82812 39.8516 9.53516 41.1406 9.53516C42.3125 9.53516 43.224 9.80208 43.875 10.3359C44.526 10.8698 44.8516 11.5859 44.8516 12.4844ZM58.0625 9.57422C59.3385 9.57422 60.3997 10.082 61.2461 11.0977C62.0924 12.1133 62.5156 13.526 62.5156 15.3359C62.5156 18.2266 61.5 20.8242 59.4688 23.1289C57.4375 25.4206 55.2891 26.5664 53.0234 26.5664C51.6302 26.5664 50.5039 26.1107 49.6445 25.1992C48.7982 24.2878 48.375 23.0443 48.375 21.4688C48.375 18.7344 49.1562 16.2083 50.7188 13.8906C52.6849 11.013 55.1328 9.57422 58.0625 9.57422ZM56.4023 11.0391C55.2956 11.0391 54.2214 11.8333 53.1797 13.4219C52.151 14.9974 51.6367 17.1784 51.6367 19.9648C51.6367 21.6576 51.9557 22.9922 52.5938 23.9688C53.0625 24.6849 53.6875 25.043 54.4688 25.043C55.5625 25.043 56.5586 24.3659 57.457 23.0117C58.6029 21.2539 59.1758 19.0729 59.1758 16.4688C59.1758 14.5156 58.9089 13.1224 58.375 12.2891C57.8542 11.4557 57.1966 11.0391 56.4023 11.0391ZM66.6836 14.418L65.9219 13.6367C67.1068 12.2174 68.2852 11.1693 69.457 10.4922C70.6289 9.8151 71.6445 9.47656 72.5039 9.47656C72.8294 9.47656 73.0833 9.5612 73.2656 9.73047C73.4609 9.88672 73.5586 10.1211 73.5586 10.4336C73.5586 10.8112 73.513 11.2018 73.4219 11.6055C73.3438 11.9961 73.0833 12.9336 72.6406 14.418C74.6328 12.4258 75.9935 11.1953 76.7227 10.7266C77.9466 9.93229 79.0664 9.53516 80.082 9.53516C80.7461 9.53516 81.306 9.84766 81.7617 10.4727C82.2174 11.0977 82.4453 12.0417 82.4453 13.3047C82.4453 16.4557 81.4622 19.4505 79.4961 22.2891C77.5299 25.1276 75.3555 26.5469 72.9727 26.5469C72.0352 26.5469 71.0977 26.293 70.1602 25.7852L68.5 32.2305C68.3958 32.6211 68.3438 32.9401 68.3438 33.1875C68.3438 33.6693 68.526 34.0143 68.8906 34.2227C69.4505 34.5482 70.6289 34.8151 72.4258 35.0234L72.1719 36C70.0755 35.8307 68.4284 35.7461 67.2305 35.7461C65.9935 35.7461 64.3919 35.8307 62.4258 36L62.6797 35.0234C63.6693 34.9193 64.3854 34.6458 64.8281 34.2031C65.2839 33.7604 65.6484 32.9727 65.9219 31.8398L69.457 17.0156C70.1211 14.2552 70.4531 12.7188 70.4531 12.4062C70.4531 12.0677 70.2904 11.8984 69.9648 11.8984C69.3919 11.8984 68.2982 12.7383 66.6836 14.418ZM70.6289 23.6367C71.6576 24.6654 72.7122 25.1797 73.793 25.1797C75.3555 25.1797 76.7227 23.9622 77.8945 21.5273C79.0794 19.0924 79.6719 16.7161 79.6719 14.3984C79.6719 13.6562 79.5026 13.0964 79.1641 12.7188C78.8385 12.3281 78.3958 12.1328 77.8359 12.1328C77.2109 12.1328 76.5078 12.4388 75.7266 13.0508C74.5156 14.0013 73.5911 14.9453 72.9531 15.8828C72.4974 16.5599 72.0677 17.7318 71.6641 19.3984L70.6289 23.6367ZM91.9258 16.6836C93.7487 15.9154 95.0964 15.5312 95.9688 15.5312C97.1797 15.5312 98.1562 15.8633 98.8984 16.5273C99.6536 17.1914 100.031 18.0964 100.031 19.2422C100.031 21.2474 99.1263 22.9792 97.3164 24.4375C95.5065 25.8828 93.5143 26.6055 91.3398 26.6055C88.7487 26.6055 87.4531 25.7917 87.4531 24.1641C87.4531 23.7214 87.707 22.4648 88.2148 20.3945L89.9531 13.4219C90.0443 13.0573 90.0898 12.7708 90.0898 12.5625C90.0898 12.1719 89.9531 11.9766 89.6797 11.9766C89.1068 11.9766 88.1042 12.6797 86.6719 14.0859L85.8125 13.4219C88.5469 10.8698 90.6107 9.59375 92.0039 9.59375C92.7201 9.59375 93.0781 10.069 93.0781 11.0195C93.0781 11.944 92.694 13.832 91.9258 16.6836ZM90.4805 23.5781C90.4805 24.125 90.6237 24.5417 90.9102 24.8281C91.1966 25.1146 91.7435 25.2578 92.5508 25.2578C93.9701 25.2578 95.1159 24.8477 95.9883 24.0273C96.8737 23.194 97.3164 21.9766 97.3164 20.375C97.3164 18.3568 96.3008 17.3477 94.2695 17.3477C93.5534 17.3477 92.707 17.556 91.7305 17.9727C90.8971 21.2669 90.4805 23.1354 90.4805 23.5781ZM15.6055 50.418C15.5013 50.8867 15.1237 52.2474 14.4727 54.5C13.9909 56.1927 13.5938 57.7422 13.2812 59.1484C14.8958 59.0052 16.1003 58.9336 16.8945 58.9336C18.5742 58.9336 19.987 59.3438 21.1328 60.1641C22.2917 60.9844 22.8711 62.2148 22.8711 63.8555C22.8711 66.1862 21.8424 68.1654 19.7852 69.793C17.7279 71.4076 15.4492 72.2148 12.9492 72.2148C12.4284 72.2148 11.3411 72.1628 9.6875 72.0586C8.88021 72.0195 8.04036 72 7.16797 72C5.76172 72 4.58333 72.1042 3.63281 72.3125L3.94531 71.2383C5.48177 71.1602 6.51693 70.75 7.05078 70.0078C7.58464 69.2526 8.0599 68.0547 8.47656 66.4141L12.5781 50.418C10.0651 50.431 7.95573 51.2578 6.25 52.8984C4.55729 54.526 3.71094 56.3164 3.71094 58.2695C3.71094 59.2331 3.95833 60.1836 4.45312 61.1211C4.83073 61.8112 5.01953 62.2865 5.01953 62.5469C5.01953 63.237 4.6224 63.582 3.82812 63.582C3.22917 63.582 2.75391 63.2174 2.40234 62.4883C2.0638 61.7461 1.89453 60.8021 1.89453 59.6562C1.89453 57.1693 2.88411 54.7995 4.86328 52.5469C6.85547 50.2812 9.58333 49.1484 13.0469 49.1484H20.5469C22.2135 49.1484 23.776 48.9596 25.2344 48.582C24.5312 51.3685 24.1341 53.1068 24.043 53.7969H23.0078C23.2161 52.7292 23.3203 52.0326 23.3203 51.707C23.3203 51.1471 23.1055 50.7956 22.6758 50.6523C22.2461 50.4961 21.1914 50.418 19.5117 50.418H15.6055ZM12.9688 60.3203L11.9922 64.2461C11.1068 67.7878 10.2604 69.9036 9.45312 70.5938C10.5599 70.8802 11.5755 71.0234 12.5 71.0234C14.7005 71.0234 16.3997 70.3333 17.5977 68.9531C18.7956 67.5729 19.3945 65.9909 19.3945 64.207C19.3945 63.2435 19.1406 62.4557 18.6328 61.8438C18.125 61.2188 17.513 60.8086 16.7969 60.6133C16.0807 60.418 14.8047 60.3203 12.9688 60.3203ZM44.2852 68.5625C41.8372 71.2057 39.8841 72.5273 38.4258 72.5273C38.0221 72.5273 37.6315 72.3385 37.2539 71.9609C36.8893 71.5833 36.6289 70.6003 36.4727 69.0117L35.6719 60.8477C33.7969 65.8737 32.2409 69.0768 31.0039 70.457C29.7669 71.8372 28.4193 72.5273 26.9609 72.5273C26.3359 72.5273 25.8216 72.3581 25.418 72.0195C25.0273 71.694 24.832 71.2578 24.832 70.7109C24.832 70.1901 24.9948 69.7669 25.3203 69.4414C25.6589 69.1029 26.0625 68.9336 26.5312 68.9336C26.7786 68.9336 27.1432 69.0312 27.625 69.2266C28.0938 69.4089 28.4648 69.5 28.7383 69.5C29.3893 69.5 30.0273 69.1875 30.6523 68.5625C31.2773 67.9375 32.2148 66.1602 33.4648 63.2305C34.7279 60.3008 35.3594 58.6797 35.3594 58.3672C35.3594 57.9635 35.1771 57.7617 34.8125 57.7617C34.0182 57.7617 32.8398 58.5365 31.2773 60.0859L30.4375 59.4023C33.1849 56.8633 35.3008 55.5938 36.7852 55.5938C37.3451 55.5938 37.7096 55.7695 37.8789 56.1211C38.0612 56.4596 38.2044 57.2018 38.3086 58.3477L39.0898 67.7422C39.2461 69.513 39.6693 70.3984 40.3594 70.3984C40.7109 70.3984 41.2904 70.0339 42.0977 69.3047C42.918 68.5625 43.4779 68.0807 43.7773 67.8594L44.2852 68.5625ZM55.0938 64.4023H51.6953L49.8984 72H46.9883C47.0143 71.8438 47.151 71.3164 47.3984 70.418C47.5807 69.7669 47.9258 68.4258 48.4336 66.3945L50.1719 59.4219C50.263 59.0573 50.3086 58.7708 50.3086 58.5625C50.3086 58.1719 50.1719 57.9766 49.8984 57.9766C49.3255 57.9766 48.3229 58.6797 46.8906 60.0859L46.0312 59.4219C48.7656 56.8698 50.8294 55.5938 52.2227 55.5938C52.9388 55.5938 53.2969 56.069 53.2969 57.0195C53.2969 57.931 52.8672 59.9948 52.0078 63.2109H55.4258C56.2591 60.8542 57.4831 58.9922 59.0977 57.625C60.7122 56.2448 62.4049 55.5547 64.1758 55.5547C65.7122 55.5547 66.8776 56.1016 67.6719 57.1953C68.4661 58.276 68.8633 59.6367 68.8633 61.2773C68.8633 64.0508 67.8737 66.6224 65.8945 68.9922C63.9154 71.349 61.7539 72.5273 59.4102 72.5273C57.9779 72.5273 56.8385 72.0716 55.9922 71.1602C55.1458 70.2487 54.7227 68.9661 54.7227 67.3125C54.7227 66.401 54.8464 65.431 55.0938 64.4023ZM65.543 62.4688C65.543 58.849 64.6185 57.0391 62.7695 57.0391C61.5716 57.0391 60.4779 57.8724 59.4883 59.5391C58.4987 61.2057 58.0039 63.3542 58.0039 65.9844C58.0039 67.4557 58.2448 68.6667 58.7266 69.6172C59.2214 70.5677 59.9245 71.043 60.8359 71.043C62.0599 71.043 63.1471 70.2031 64.0977 68.5234C65.0612 66.8438 65.543 64.8255 65.543 62.4688ZM76.4297 60.0859L75.5703 59.4023C78.3177 56.8633 80.4076 55.5938 81.8398 55.5938C82.5169 55.5938 82.901 56.0104 82.9922 56.8438L84.3203 68.9922L92.4453 56.1016H95.2188L93.3633 62.918C92.2956 66.8763 91.7617 69.1289 91.7617 69.6758C91.7617 70.1836 91.9505 70.4375 92.3281 70.4375C92.7969 70.4375 93.8711 69.5846 95.5508 67.8789L96.1953 68.6016C93.5911 71.3229 91.6641 72.6836 90.4141 72.6836C90.0625 72.6836 89.724 72.5208 89.3984 72.1953C89.0729 71.8828 88.9102 71.4336 88.9102 70.8477C88.9102 69.9753 89.3659 67.8073 90.2773 64.3438L91.4688 59.793L83.5 72.5078H82.0352L80.7656 61.1797C78.9427 66.4531 77.4583 69.6628 76.3125 70.8086C75.1797 71.9544 73.9167 72.5273 72.5234 72.5273C71.8333 72.5273 71.306 72.3451 70.9414 71.9805C70.5898 71.6029 70.4141 71.1732 70.4141 70.6914C70.4141 70.2227 70.5703 69.8125 70.8828 69.4609C71.1953 69.1094 71.5859 68.9336 72.0547 68.9336C72.3542 68.9336 72.7383 69.0312 73.207 69.2266C73.7279 69.4219 74.099 69.5195 74.3203 69.5195C74.8932 69.5195 75.4727 69.1745 76.0586 68.4844C76.6445 67.7943 77.5039 66.069 78.6367 63.3086C79.7695 60.5482 80.3359 58.8815 80.3359 58.3086C80.3359 57.9831 80.1732 57.8203 79.8477 57.8203C79.0664 57.8203 77.9271 58.5755 76.4297 60.0859ZM112.844 56.1016H115.617L113.781 62.918C112.701 66.8763 112.16 69.1289 112.16 69.6758C112.16 69.9232 112.219 70.112 112.336 70.2422C112.453 70.3724 112.583 70.4375 112.727 70.4375C112.948 70.4375 113.208 70.3398 113.508 70.1445C113.938 69.8451 114.751 69.0898 115.949 67.8789L116.594 68.6016C113.977 71.3229 112.049 72.6836 110.812 72.6836C110.396 72.6836 110.038 72.5208 109.738 72.1953C109.452 71.8828 109.309 71.4336 109.309 70.8477C109.309 70.1706 109.452 69.2656 109.738 68.1328C108.579 69.4609 107.147 70.6263 105.441 71.6289C104.309 72.293 103.326 72.625 102.492 72.625C102.036 72.625 101.678 72.4753 101.418 72.1758C101.158 71.8763 101.027 71.401 101.027 70.75C101.027 70.2422 101.086 69.6953 101.203 69.1094C101.372 68.2891 101.802 66.6419 102.492 64.168C103.365 61.0299 103.801 59.1484 103.801 58.5234C103.801 58.1589 103.671 57.9766 103.41 57.9766C103.176 57.9766 102.857 58.1003 102.453 58.3477C102.049 58.582 101.359 59.1615 100.383 60.0859L99.5234 59.4023C101.268 57.8398 102.596 56.8177 103.508 56.3359C104.432 55.8411 105.174 55.5938 105.734 55.5938C106.047 55.5938 106.301 55.7109 106.496 55.9453C106.691 56.1667 106.789 56.5182 106.789 57C106.789 57.8984 106.32 60.1055 105.383 63.6211C104.549 66.7852 104.133 68.5885 104.133 69.0312C104.133 69.3047 104.217 69.5391 104.387 69.7344C104.569 69.9297 104.764 70.0273 104.973 70.0273C105.702 70.0273 106.737 69.4284 108.078 68.2305C109.419 67.0195 110.298 65.6458 110.715 64.1094L112.844 56.1016ZM136.992 68.6016C134.388 71.3229 132.461 72.6836 131.211 72.6836C130.846 72.6836 130.501 72.5208 130.176 72.1953C129.863 71.8698 129.707 71.4206 129.707 70.8477C129.707 70.1836 129.837 69.3242 130.098 68.2695L131.016 64.4023H125.586L123.789 72H120.879C120.905 71.8438 121.042 71.3164 121.289 70.418C121.471 69.7669 121.816 68.4258 122.324 66.3945L124.062 59.4219C124.154 59.0573 124.199 58.7708 124.199 58.5625C124.199 58.1719 124.062 57.9766 123.789 57.9766C123.216 57.9766 122.214 58.6797 120.781 60.0859L119.922 59.4219C122.656 56.8698 124.72 55.5938 126.113 55.5938C126.829 55.5938 127.188 56.069 127.188 57.0195C127.188 57.931 126.758 59.9948 125.898 63.2109H131.348L133.242 56.1016H136.016L134.18 62.918C133.099 66.8763 132.559 69.1289 132.559 69.6758C132.559 70.1836 132.747 70.4375 133.125 70.4375C133.594 70.4375 134.668 69.5846 136.348 67.8789L136.992 68.6016Z" fill="white"/>
</svg>
