<svg width="136" height="73" viewBox="0 0 136 73" fill="none" xmlns="http://www.w3.org/2000/svg">
<path d="M39.0312 24.9844C39.1745 24.9974 39.487 25.043 39.9688 25.1211C40.7109 25.2513 41.3099 25.3164 41.7656 25.3164C42.3255 25.3164 42.931 25.2513 43.582 25.1211L43.3281 26.2344C42.6771 26.3125 42.1693 26.3516 41.8047 26.3516C41.2448 26.3516 40.5026 26.306 39.5781 26.2148C38.5885 26.1237 37.7422 26.0781 37.0391 26.0781C36.4401 26.0781 35.8607 26.1693 35.3008 26.3516C35.6133 25.5312 36.2188 23.4479 37.1172 20.1016L39.7148 10.5312C37.2409 13.3568 34.487 16.2604 31.4531 19.2422C29.2396 21.4036 27.7161 22.9271 26.8828 23.8125C25.9323 24.8281 25.0208 25.6484 24.1484 26.2734C23.2891 26.9115 22.2865 27.2305 21.1406 27.2305C20.112 27.2305 19.2331 27.0091 18.5039 26.5664C17.7878 26.1367 17.4297 25.6549 17.4297 25.1211C17.4297 24.8346 17.5404 24.5612 17.7617 24.3008C17.9831 24.0404 18.263 23.9102 18.6016 23.9102C19.1094 23.9102 19.6302 24.2682 20.1641 24.9844C20.6719 25.6615 21.1602 26 21.6289 26C22.7096 26 23.6862 25.1341 24.5586 23.4023C25.444 21.6706 26.7461 17.5885 28.4648 11.1562L30.3203 4.22266C27.7552 4.2487 25.8086 4.67839 24.4805 5.51172C23.1523 6.34505 22.4883 7.3151 22.4883 8.42188C22.4883 8.78646 22.6576 9.2487 22.9961 9.80859C23.3216 10.3294 23.4844 10.7526 23.4844 11.0781C23.4844 11.4297 23.3672 11.7357 23.1328 11.9961C22.8984 12.2435 22.5924 12.3672 22.2148 12.3672C21.7461 12.3672 21.349 12.1458 21.0234 11.7031C20.7109 11.2474 20.5547 10.6159 20.5547 9.80859C20.5547 8.67578 20.8672 7.63411 21.4922 6.68359C22.1172 5.72005 22.9701 4.95182 24.0508 4.37891C25.1315 3.80599 26.2969 3.42188 27.5469 3.22656C28.7969 3.03125 30.9909 2.93359 34.1289 2.93359C33.6732 3.84505 33.3151 4.67839 33.0547 5.43359C32.8073 6.1888 32.0716 8.77344 30.8477 13.1875L28.9727 19.9844C30.0404 18.8125 31.1927 17.6081 32.4297 16.3711C36.401 12.4128 39.3633 9.02083 41.3164 6.19531C42.931 2.35417 45.3333 0.433594 48.5234 0.433594C49.6693 0.433594 50.5482 0.661458 51.1602 1.11719C51.7852 1.5599 52.0977 2.06771 52.0977 2.64062C52.0977 3.39583 51.7005 3.77344 50.9062 3.77344C50.4505 3.77344 49.9362 3.44792 49.3633 2.79688C48.7773 2.14583 48.2565 1.82031 47.8008 1.82031C46.4596 1.82031 45.1185 3.57812 43.7773 7.09375C42.4362 10.6094 40.8542 16.5729 39.0312 24.9844ZM61.4414 12.4844C61.4414 13.4089 61.1484 14.3919 60.5625 15.4336C59.9896 16.4622 58.5117 17.7057 56.1289 19.1641C53.8763 20.5443 52.4635 21.4948 51.8906 22.0156C51.3307 22.5365 51.0508 23.1094 51.0508 23.7344C51.0508 24.8542 51.7995 25.4141 53.2969 25.4141C53.974 25.4141 54.5078 25.2708 54.8984 24.9844C55.2891 24.6849 55.6602 24.1901 56.0117 23.5C56.3893 22.7448 56.7344 22.237 57.0469 21.9766C57.3594 21.7031 57.763 21.5664 58.2578 21.5664C58.974 21.5664 59.332 21.9375 59.332 22.6797C59.332 23.526 58.7005 24.3789 57.4375 25.2383C56.1875 26.0977 54.7682 26.5273 53.1797 26.5273C50.25 26.5273 48.7852 25.4466 48.7852 23.2852C48.7852 22.1784 49.1758 21.1823 49.957 20.2969C50.7383 19.4115 52.2096 18.2721 54.3711 16.8789C56.4544 15.5378 57.8281 14.5417 58.4922 13.8906C59.1562 13.2266 59.4883 12.5625 59.4883 11.8984C59.4883 11.1693 59.1367 10.8047 58.4336 10.8047C57.8867 10.8047 57.0339 11.2799 55.875 12.2305C55.1198 12.8294 54.4883 13.1289 53.9805 13.1289C53.2643 13.1289 52.9062 12.8229 52.9062 12.2109C52.9062 11.5859 53.388 10.987 54.3516 10.4141C55.3151 9.82812 56.4414 9.53516 57.7305 9.53516C58.9023 9.53516 59.8138 9.80208 60.4648 10.3359C61.1159 10.8698 61.4414 11.5859 61.4414 12.4844ZM74.6523 9.57422C75.9284 9.57422 76.9896 10.082 77.8359 11.0977C78.6823 12.1133 79.1055 13.526 79.1055 15.3359C79.1055 18.2266 78.0898 20.8242 76.0586 23.1289C74.0273 25.4206 71.8789 26.5664 69.6133 26.5664C68.2201 26.5664 67.0938 26.1107 66.2344 25.1992C65.388 24.2878 64.9648 23.0443 64.9648 21.4688C64.9648 18.7344 65.7461 16.2083 67.3086 13.8906C69.2747 11.013 71.7227 9.57422 74.6523 9.57422ZM72.9922 11.0391C71.8854 11.0391 70.8112 11.8333 69.7695 13.4219C68.7409 14.9974 68.2266 17.1784 68.2266 19.9648C68.2266 21.6576 68.5456 22.9922 69.1836 23.9688C69.6523 24.6849 70.2773 25.043 71.0586 25.043C72.1523 25.043 73.1484 24.3659 74.0469 23.0117C75.1927 21.2539 75.7656 19.0729 75.7656 16.4688C75.7656 14.5156 75.4987 13.1224 74.9648 12.2891C74.444 11.4557 73.7865 11.0391 72.9922 11.0391ZM83.2734 14.418L82.5117 13.6367C83.6966 12.2174 84.875 11.1693 86.0469 10.4922C87.2188 9.8151 88.2344 9.47656 89.0938 9.47656C89.4193 9.47656 89.6732 9.5612 89.8555 9.73047C90.0508 9.88672 90.1484 10.1211 90.1484 10.4336C90.1484 10.8112 90.1029 11.2018 90.0117 11.6055C89.9336 11.9961 89.6732 12.9336 89.2305 14.418C91.2227 12.4258 92.5833 11.1953 93.3125 10.7266C94.5365 9.93229 95.6562 9.53516 96.6719 9.53516C97.3359 9.53516 97.8958 9.84766 98.3516 10.4727C98.8073 11.0977 99.0352 12.0417 99.0352 13.3047C99.0352 16.4557 98.0521 19.4505 96.0859 22.2891C94.1198 25.1276 91.9453 26.5469 89.5625 26.5469C88.625 26.5469 87.6875 26.293 86.75 25.7852L85.0898 32.2305C84.9857 32.6211 84.9336 32.9401 84.9336 33.1875C84.9336 33.6693 85.1159 34.0143 85.4805 34.2227C86.0404 34.5482 87.2188 34.8151 89.0156 35.0234L88.7617 36C86.6654 35.8307 85.0182 35.7461 83.8203 35.7461C82.5833 35.7461 80.9818 35.8307 79.0156 36L79.2695 35.0234C80.2591 34.9193 80.9753 34.6458 81.418 34.2031C81.8737 33.7604 82.2383 32.9727 82.5117 31.8398L86.0469 17.0156C86.7109 14.2552 87.043 12.7188 87.043 12.4062C87.043 12.0677 86.8802 11.8984 86.5547 11.8984C85.9818 11.8984 84.888 12.7383 83.2734 14.418ZM87.2188 23.6367C88.2474 24.6654 89.3021 25.1797 90.3828 25.1797C91.9453 25.1797 93.3125 23.9622 94.4844 21.5273C95.6693 19.0924 96.2617 16.7161 96.2617 14.3984C96.2617 13.6562 96.0924 13.0964 95.7539 12.7188C95.4284 12.3281 94.9857 12.1328 94.4258 12.1328C93.8008 12.1328 93.0977 12.4388 92.3164 13.0508C91.1055 14.0013 90.181 14.9453 89.543 15.8828C89.0872 16.5599 88.6576 17.7318 88.2539 19.3984L87.2188 23.6367ZM108.516 16.6836C110.339 15.9154 111.686 15.5312 112.559 15.5312C113.77 15.5312 114.746 15.8633 115.488 16.5273C116.243 17.1914 116.621 18.0964 116.621 19.2422C116.621 21.2474 115.716 22.9792 113.906 24.4375C112.096 25.8828 110.104 26.6055 107.93 26.6055C105.339 26.6055 104.043 25.7917 104.043 24.1641C104.043 23.7214 104.297 22.4648 104.805 20.3945L106.543 13.4219C106.634 13.0573 106.68 12.7708 106.68 12.5625C106.68 12.1719 106.543 11.9766 106.27 11.9766C105.697 11.9766 104.694 12.6797 103.262 14.0859L102.402 13.4219C105.137 10.8698 107.201 9.59375 108.594 9.59375C109.31 9.59375 109.668 10.069 109.668 11.0195C109.668 11.944 109.284 13.832 108.516 16.6836ZM107.07 23.5781C107.07 24.125 107.214 24.5417 107.5 24.8281C107.786 25.1146 108.333 25.2578 109.141 25.2578C110.56 25.2578 111.706 24.8477 112.578 24.0273C113.464 23.194 113.906 21.9766 113.906 20.375C113.906 18.3568 112.891 17.3477 110.859 17.3477C110.143 17.3477 109.297 17.556 108.32 17.9727C107.487 21.2669 107.07 23.1354 107.07 23.5781ZM14.0859 50.418C13.9818 50.8867 13.6042 52.2474 12.9531 54.5C12.4714 56.1927 12.0742 57.7422 11.7617 59.1484C13.3763 59.0052 14.5807 58.9336 15.375 58.9336C17.0547 58.9336 18.4674 59.3438 19.6133 60.1641C20.7721 60.9844 21.3516 62.2148 21.3516 63.8555C21.3516 66.1862 20.3229 68.1654 18.2656 69.793C16.2083 71.4076 13.9297 72.2148 11.4297 72.2148C10.9089 72.2148 9.82161 72.1628 8.16797 72.0586C7.36068 72.0195 6.52083 72 5.64844 72C4.24219 72 3.0638 72.1042 2.11328 72.3125L2.42578 71.2383C3.96224 71.1602 4.9974 70.75 5.53125 70.0078C6.0651 69.2526 6.54036 68.0547 6.95703 66.4141L11.0586 50.418C8.54557 50.431 6.4362 51.2578 4.73047 52.8984C3.03776 54.526 2.19141 56.3164 2.19141 58.2695C2.19141 59.2331 2.4388 60.1836 2.93359 61.1211C3.3112 61.8112 3.5 62.2865 3.5 62.5469C3.5 63.237 3.10286 63.582 2.30859 63.582C1.70964 63.582 1.23438 63.2174 0.882812 62.4883C0.544271 61.7461 0.375 60.8021 0.375 59.6562C0.375 57.1693 1.36458 54.7995 3.34375 52.5469C5.33594 50.2812 8.0638 49.1484 11.5273 49.1484H19.0273C20.694 49.1484 22.2565 48.9596 23.7148 48.582C23.0117 51.3685 22.6146 53.1068 22.5234 53.7969H21.4883C21.6966 52.7292 21.8008 52.0326 21.8008 51.707C21.8008 51.1471 21.5859 50.7956 21.1562 50.6523C20.7266 50.4961 19.6719 50.418 17.9922 50.418H14.0859ZM11.4492 60.3203L10.4727 64.2461C9.58724 67.7878 8.74089 69.9036 7.93359 70.5938C9.04036 70.8802 10.056 71.0234 10.9805 71.0234C13.181 71.0234 14.8802 70.3333 16.0781 68.9531C17.276 67.5729 17.875 65.9909 17.875 64.207C17.875 63.2435 17.6211 62.4557 17.1133 61.8438C16.6055 61.2188 15.9935 60.8086 15.2773 60.6133C14.5612 60.418 13.2852 60.3203 11.4492 60.3203ZM42.7656 68.5625C40.3177 71.2057 38.3646 72.5273 36.9062 72.5273C36.5026 72.5273 36.112 72.3385 35.7344 71.9609C35.3698 71.5833 35.1094 70.6003 34.9531 69.0117L34.1523 60.8477C32.2773 65.8737 30.7214 69.0768 29.4844 70.457C28.2474 71.8372 26.8997 72.5273 25.4414 72.5273C24.8164 72.5273 24.3021 72.3581 23.8984 72.0195C23.5078 71.694 23.3125 71.2578 23.3125 70.7109C23.3125 70.1901 23.4753 69.7669 23.8008 69.4414C24.1393 69.1029 24.543 68.9336 25.0117 68.9336C25.2591 68.9336 25.6237 69.0312 26.1055 69.2266C26.5742 69.4089 26.9453 69.5 27.2188 69.5C27.8698 69.5 28.5078 69.1875 29.1328 68.5625C29.7578 67.9375 30.6953 66.1602 31.9453 63.2305C33.2083 60.3008 33.8398 58.6797 33.8398 58.3672C33.8398 57.9635 33.6576 57.7617 33.293 57.7617C32.4987 57.7617 31.3203 58.5365 29.7578 60.0859L28.918 59.4023C31.6654 56.8633 33.7812 55.5938 35.2656 55.5938C35.8255 55.5938 36.1901 55.7695 36.3594 56.1211C36.5417 56.4596 36.6849 57.2018 36.7891 58.3477L37.5703 67.7422C37.7266 69.513 38.1497 70.3984 38.8398 70.3984C39.1914 70.3984 39.7708 70.0339 40.5781 69.3047C41.3984 68.5625 41.9583 68.0807 42.2578 67.8594L42.7656 68.5625ZM53.5742 64.4023H50.1758L48.3789 72H45.4688C45.4948 71.8438 45.6315 71.3164 45.8789 70.418C46.0612 69.7669 46.4062 68.4258 46.9141 66.3945L48.6523 59.4219C48.7435 59.0573 48.7891 58.7708 48.7891 58.5625C48.7891 58.1719 48.6523 57.9766 48.3789 57.9766C47.806 57.9766 46.8034 58.6797 45.3711 60.0859L44.5117 59.4219C47.2461 56.8698 49.3099 55.5938 50.7031 55.5938C51.4193 55.5938 51.7773 56.069 51.7773 57.0195C51.7773 57.931 51.3477 59.9948 50.4883 63.2109H53.9062C54.7396 60.8542 55.9635 58.9922 57.5781 57.625C59.1927 56.2448 60.8854 55.5547 62.6562 55.5547C64.1927 55.5547 65.3581 56.1016 66.1523 57.1953C66.9466 58.276 67.3438 59.6367 67.3438 61.2773C67.3438 64.0508 66.3542 66.6224 64.375 68.9922C62.3958 71.349 60.2344 72.5273 57.8906 72.5273C56.4583 72.5273 55.319 72.0716 54.4727 71.1602C53.6263 70.2487 53.2031 68.9661 53.2031 67.3125C53.2031 66.401 53.3268 65.431 53.5742 64.4023ZM64.0234 62.4688C64.0234 58.849 63.099 57.0391 61.25 57.0391C60.0521 57.0391 58.9583 57.8724 57.9688 59.5391C56.9792 61.2057 56.4844 63.3542 56.4844 65.9844C56.4844 67.4557 56.7253 68.6667 57.207 69.6172C57.7018 70.5677 58.4049 71.043 59.3164 71.043C60.5404 71.043 61.6276 70.2031 62.5781 68.5234C63.5417 66.8438 64.0234 64.8255 64.0234 62.4688ZM74.9102 60.0859L74.0508 59.4023C76.7982 56.8633 78.888 55.5938 80.3203 55.5938C80.9974 55.5938 81.3815 56.0104 81.4727 56.8438L82.8008 68.9922L90.9258 56.1016H93.6992L91.8438 62.918C90.776 66.8763 90.2422 69.1289 90.2422 69.6758C90.2422 70.1836 90.431 70.4375 90.8086 70.4375C91.2773 70.4375 92.3516 69.5846 94.0312 67.8789L94.6758 68.6016C92.0716 71.3229 90.1445 72.6836 88.8945 72.6836C88.543 72.6836 88.2044 72.5208 87.8789 72.1953C87.5534 71.8828 87.3906 71.4336 87.3906 70.8477C87.3906 69.9753 87.8464 67.8073 88.7578 64.3438L89.9492 59.793L81.9805 72.5078H80.5156L79.2461 61.1797C77.4232 66.4531 75.9388 69.6628 74.793 70.8086C73.6602 71.9544 72.3971 72.5273 71.0039 72.5273C70.3138 72.5273 69.7865 72.3451 69.4219 71.9805C69.0703 71.6029 68.8945 71.1732 68.8945 70.6914C68.8945 70.2227 69.0508 69.8125 69.3633 69.4609C69.6758 69.1094 70.0664 68.9336 70.5352 68.9336C70.8346 68.9336 71.2188 69.0312 71.6875 69.2266C72.2083 69.4219 72.5794 69.5195 72.8008 69.5195C73.3737 69.5195 73.9531 69.1745 74.5391 68.4844C75.125 67.7943 75.9844 66.069 77.1172 63.3086C78.25 60.5482 78.8164 58.8815 78.8164 58.3086C78.8164 57.9831 78.6536 57.8203 78.3281 57.8203C77.5469 57.8203 76.4076 58.5755 74.9102 60.0859ZM111.324 56.1016H114.098L112.262 62.918C111.181 66.8763 110.641 69.1289 110.641 69.6758C110.641 69.9232 110.699 70.112 110.816 70.2422C110.934 70.3724 111.064 70.4375 111.207 70.4375C111.428 70.4375 111.689 70.3398 111.988 70.1445C112.418 69.8451 113.232 69.0898 114.43 67.8789L115.074 68.6016C112.457 71.3229 110.53 72.6836 109.293 72.6836C108.876 72.6836 108.518 72.5208 108.219 72.1953C107.932 71.8828 107.789 71.4336 107.789 70.8477C107.789 70.1706 107.932 69.2656 108.219 68.1328C107.06 69.4609 105.628 70.6263 103.922 71.6289C102.789 72.293 101.806 72.625 100.973 72.625C100.517 72.625 100.159 72.4753 99.8984 72.1758C99.638 71.8763 99.5078 71.401 99.5078 70.75C99.5078 70.2422 99.5664 69.6953 99.6836 69.1094C99.8529 68.2891 100.283 66.6419 100.973 64.168C101.845 61.0299 102.281 59.1484 102.281 58.5234C102.281 58.1589 102.151 57.9766 101.891 57.9766C101.656 57.9766 101.337 58.1003 100.934 58.3477C100.53 58.582 99.8398 59.1615 98.8633 60.0859L98.0039 59.4023C99.7487 57.8398 101.077 56.8177 101.988 56.3359C102.913 55.8411 103.655 55.5938 104.215 55.5938C104.527 55.5938 104.781 55.7109 104.977 55.9453C105.172 56.1667 105.27 56.5182 105.27 57C105.27 57.8984 104.801 60.1055 103.863 63.6211C103.03 66.7852 102.613 68.5885 102.613 69.0312C102.613 69.3047 102.698 69.5391 102.867 69.7344C103.049 69.9297 103.245 70.0273 103.453 70.0273C104.182 70.0273 105.217 69.4284 106.559 68.2305C107.9 67.0195 108.779 65.6458 109.195 64.1094L111.324 56.1016ZM135.473 68.6016C132.868 71.3229 130.941 72.6836 129.691 72.6836C129.327 72.6836 128.982 72.5208 128.656 72.1953C128.344 71.8698 128.188 71.4206 128.188 70.8477C128.188 70.1836 128.318 69.3242 128.578 68.2695L129.496 64.4023H124.066L122.27 72H119.359C119.385 71.8438 119.522 71.3164 119.77 70.418C119.952 69.7669 120.297 68.4258 120.805 66.3945L122.543 59.4219C122.634 59.0573 122.68 58.7708 122.68 58.5625C122.68 58.1719 122.543 57.9766 122.27 57.9766C121.697 57.9766 120.694 58.6797 119.262 60.0859L118.402 59.4219C121.137 56.8698 123.201 55.5938 124.594 55.5938C125.31 55.5938 125.668 56.069 125.668 57.0195C125.668 57.931 125.238 59.9948 124.379 63.2109H129.828L131.723 56.1016H134.496L132.66 62.918C131.579 66.8763 131.039 69.1289 131.039 69.6758C131.039 70.1836 131.228 70.4375 131.605 70.4375C132.074 70.4375 133.148 69.5846 134.828 67.8789L135.473 68.6016Z" fill="white"/>
</svg>
