<svg width="35" height="35" viewBox="0 0 35 35" fill="none" xmlns="http://www.w3.org/2000/svg">
<g id="akar-icons:sound-on">
<path id="Vector" d="M23.3333 12.3959C25.2773 14.9888 25.2773 20.0113 23.3333 22.6042M27.7083 7.29173C33.5242 12.8451 33.5592 22.1915 27.7083 27.7084M2.91667 21.8153V13.1834C2.91667 12.3463 3.57 11.6667 4.375 11.6667H9.60458C9.79757 11.666 9.98842 11.6263 10.1656 11.5498C10.3428 11.4734 10.5027 11.3618 10.6356 11.2219L15.0106 6.2811C15.9294 5.32443 17.5 6.00256 17.5 7.35443V27.6457C17.5 29.0078 15.9104 29.6801 14.9975 28.7044L10.6371 23.7913C10.5038 23.6474 10.3423 23.5325 10.1626 23.4537C9.983 23.3749 9.78907 23.334 9.59292 23.3334H4.375C3.57 23.3334 2.91667 22.6538 2.91667 21.8153Z" stroke="white" stroke-width="2" stroke-linecap="round" stroke-linejoin="round"/>
</g>
</svg>
